<?xml version="1.0" encoding="UTF-8" standalone="no"?>
<!-- Uploaded to: SVG Repo, www.svgrepo.com, Generator: SVG Repo Mixer Tools -->

<svg
   fill="#000000"
   height="800"
   width="800"
   version="1.1"
   id="Layer_1"
   viewBox="0 0 512 512"
   xml:space="preserve"
   sodipodi:docname="lamp.svg"
   inkscape:version="1.3.2 (091e20e, 2023-11-25, custom)"
   xmlns:inkscape="http://www.inkscape.org/namespaces/inkscape"
   xmlns:sodipodi="http://sodipodi.sourceforge.net/DTD/sodipodi-0.dtd"
   xmlns="http://www.w3.org/2000/svg"
   xmlns:svg="http://www.w3.org/2000/svg"><sodipodi:namedview
   id="namedview1"
   pagecolor="#ffffff"
   bordercolor="#000000"
   borderopacity="0.25"
   inkscape:showpageshadow="2"
   inkscape:pageopacity="0.0"
   inkscape:pagecheckerboard="0"
   inkscape:deskcolor="#d1d1d1"
   inkscape:zoom="0.3875"
   inkscape:cx="400"
   inkscape:cy="400"
   inkscape:window-width="1280"
   inkscape:window-height="698"
   inkscape:window-x="-6"
   inkscape:window-y="-6"
   inkscape:window-maximized="1"
   inkscape:current-layer="Layer_1" /><defs
   id="defs13" />





<path
   d="M 268.71 152.678 C 268.026 152.419 267.264 152.765 267.008 153.447 C 265.291 158.009 260.86 161.073 255.984 161.073 C 255.255 161.073 254.664 161.663 254.664 162.393 C 254.664 163.123 255.255 163.713 255.984 163.713 C 261.953 163.713 267.377 159.963 269.479 154.378 C 269.737 153.696 269.392 152.934 268.71 152.678 Z"
   id="path7" /><path
   d="M 255.984 81.8783 C 221.216 81.8783 193.982 109.113 193.982 143.88 C 193.982 144.61 194.573 145.2 195.302 145.2 L 316.665 145.2 C 317.394 145.2 317.985 144.61 317.985 143.88 C 317.985 109.113 290.751 81.8783 255.984 81.8783 Z M 196.637 142.56 C 197.315 109.906 223.138 84.5183 255.984 84.5183 C 288.829 84.5183 314.652 109.906 315.332 142.56 Z"
   id="path1" /><path
   d="M 280.913 97.2365 C 273.296 93.1352 264.675 90.9665 255.984 90.9665 C 255.255 90.9665 254.664 91.5565 254.664 92.2865 C 254.664 93.0164 255.255 93.6065 255.984 93.6065 C 264.239 93.6065 272.427 95.6657 279.662 99.5623 C 279.861 99.6692 280.075 99.7194 280.286 99.7194 C 280.756 99.7194 281.212 99.4673 281.449 99.0238 C 281.795 98.3836 281.555 97.5836 280.913 97.2365 Z"
   id="path2" /><path
   d="M 295.569 108.88 C 293.09 106.069 290.31 103.517 287.305 101.293 C 286.721 100.857 285.892 100.985 285.459 101.569 C 285.025 102.155 285.149 102.981 285.735 103.414 C 288.592 105.527 291.233 107.954 293.589 110.625 C 293.849 110.922 294.214 111.073 294.579 111.073 C 294.889 111.073 295.2 110.964 295.452 110.743 C 296 110.261 296.051 109.427 295.569 108.88 Z"
   id="path3" /><path
   d="M 275.015 143.766 C 274.819 143.066 274.094 142.655 273.389 142.852 C 272.688 143.047 272.278 143.776 272.474 144.478 C 272.893 145.974 273.105 147.532 273.105 149.107 C 273.105 158.591 265.389 166.309 255.903 166.309 C 246.418 166.309 238.701 158.593 238.701 149.107 C 238.701 147.54 238.912 145.988 239.328 144.489 C 239.523 143.786 239.111 143.059 238.409 142.864 C 237.708 142.674 236.978 143.081 236.784 143.782 C 236.305 145.51 236.061 147.303 236.061 149.107 C 236.061 160.049 244.962 168.949 255.903 168.949 C 266.845 168.949 275.747 160.049 275.744 149.107 C 275.744 147.291 275.499 145.494 275.015 143.766 Z"
   id="path5" /><path
   d="M 267.245 84.1012 L 265.477 50.0874 C 265.287 46.4891 262.205 43.56 258.603 43.56 L 253.378 43.56 C 249.777 43.56 246.692 46.4891 246.502 50.0874 L 244.729 83.7883 C 244.691 84.517 245.251 85.1387 245.978 85.177 C 246.703 85.2086 247.327 84.6569 247.365 83.9282 L 249.138 50.2273 C 249.253 48.044 251.195 46.2 253.378 46.2 L 258.603 46.2 C 260.786 46.2 262.726 48.1985 262.84 50.3818 L 264.607 84.2384 C 264.644 84.9433 265.228 85.8 265.925 85.8 L 265.995 85.8 C 266.723 84.48 267.283 84.8285 267.245 84.1012 Z"
   id="path9" /><path
   d="M 255.984 0 C 255.255 0 254.664 0.59004 254.664 1.32 L 254.664 44.88 C 254.664 45.61 255.255 46.2 255.984 46.2 C 256.712 46.2 257.304 45.61 257.304 44.88 L 257.304 1.32 C 257.304 0.59004 256.712 0 255.984 0 Z"
   id="path11" />
</svg>
